<?xml version="1.0" encoding="UTF-8" standalone="no"?>
<svg
   fill="none"
   viewBox="0 0 1024 245"
   version="1.1"
   id="svg146"
   sodipodi:docname="flights_dark_theme_3.svg"
   inkscape:version="1.2.2 (732a01da63, 2022-12-09)"
   xmlns:inkscape="http://www.inkscape.org/namespaces/inkscape"
   xmlns:sodipodi="http://sodipodi.sourceforge.net/DTD/sodipodi-0.dtd"
   xmlns="http://www.w3.org/2000/svg"
   xmlns:svg="http://www.w3.org/2000/svg">
  <defs
     id="defs150" />
  <sodipodi:namedview
     id="namedview148"
     pagecolor="#ffffff"
     bordercolor="#666666"
     borderopacity="1.0"
     inkscape:showpageshadow="2"
     inkscape:pageopacity="0.0"
     inkscape:pagecheckerboard="0"
     inkscape:deskcolor="#d1d1d1"
     showgrid="false"
     inkscape:zoom="0.82725969"
     inkscape:cx="476.27124"
     inkscape:cy="108.79292"
     inkscape:window-width="1920"
     inkscape:window-height="1017"
     inkscape:window-x="1912"
     inkscape:window-y="-6"
     inkscape:window-maximized="1"
     inkscape:current-layer="svg146" />
  <g
     id="g577"
     transform="matrix(-1,0,0,1,1024,0)">
    <path
       d="M 1024,0 H 32.2 V 203.2 H 1024 Z"
       fill="#3c4043"
       id="path2" />
    <path
       d="m 184.6,147.3 a 25.4,25.4 0 1 0 0,-50.8 25.4,25.4 0 0 0 0,50.8 z"
       fill="#202124"
       id="path4" />
    <path
       d="m 483.6606,53.3 -170.8,40.2 171.7,-37"
       stroke="#5f6368"
       stroke-miterlimit="10"
       id="path6" />
    <path
       d="m 252.4,163.7 a 57.1,57.1 0 1 0 0,-114.2 57.1,57.1 0 0 0 0,114.2 z"
       fill="#202124"
       id="path8" />
    <path
       d="m 321.2,134.2 a 26.2,26.2 0 1 0 0,-52.4 26.2,26.2 0 0 0 0,52.4 z"
       fill="#202124"
       id="path10" />
    <path
       d="m 357.2,127.2 a 19.2,19.2 0 1 0 0,-38.4 19.2,19.2 0 0 0 0,38.4 z"
       fill="#202124"
       id="path12" />
    <path
       d="m 395.5,123.2 a 25.4,25.4 0 1 0 0,-50.8 25.4,25.4 0 0 0 0,50.8 z"
       fill="#202124"
       id="path14" />
    <path
       d="m 423.1,104 a 12.05,12.05 0 1 0 0,-24.1 12,12 0 0 0 0,24 z"
       fill="#202124"
       id="path16" />
    <path
       d="m 442.4,118.4 a 16.25,16.25 0 1 0 0,-32.5 16.25,16.25 0 0 0 0,32.5 z"
       fill="#202124"
       id="path18" />
    <path
       d="m 462.8,120.8 a 12.15,12.15 0 1 0 0,-24.3 12.15,12.15 0 0 0 0,24.3 z"
       fill="#202124"
       id="path20" />
    <path
       d="m 493.3,132.4 a 22.8,22.8 0 1 0 0,-45.5 22.8,22.8 0 0 0 0,45.5 z m 68.2,-20.1 a 25.5,25.5 0 1 0 0,-50.9 25.5,25.5 0 0 0 0,51 z"
       fill="#202124"
       id="path22" />
    <path
       d="m 590.5,90.4 a 29,29 0 1 0 0,-58 29,29 0 0 0 0,58 z"
       fill="#202124"
       id="path24" />
    <path
       d="m 621.4,66 a 9.7,9.7 0 1 0 0,-19.4 9.7,9.7 0 0 0 0,19.4 z"
       fill="#202124"
       id="path26" />
    <path
       d="m 640.8,67.3 a 13.4,13.4 0 1 0 0,-26.8 13.4,13.4 0 0 0 0,26.8 z M 681,80.4 a 16.6,16.6 0 1 0 0,-33.2 16.6,16.6 0 0 0 0,33.2 z"
       fill="#202124"
       id="path28" />
    <path
       d="m 711,85.8 a 16.6,16.6 0 1 0 0,-33.2 16.6,16.6 0 0 0 0,33.2 z"
       fill="#202124"
       id="path30" />
    <path
       d="m 749.2,101.5 a 30,30 0 1 0 0,-60 30,30 0 0 0 0,60 z"
       fill="#202124"
       id="path32" />
    <path
       d="m 775.1,98.6 a 9.65,9.65 0 1 0 0,-19.3 9.65,9.65 0 0 0 0,19.3 z"
       fill="#202124"
       id="path34" />
    <path
       d="m 788.9,111.8 a 11.8,11.8 0 1 0 0,-23.5 11.8,11.8 0 0 0 0,23.5 z"
       fill="#202124"
       id="path36" />
    <path
       d="m 183.3,95.9 a 28.9,28.9 0 0 1 22.3,10.5"
       stroke="#5f6368"
       stroke-linecap="round"
       stroke-linejoin="round"
       id="path38" />
    <path
       d="m 321.1,81 a 26.9,26.9 0 0 1 25,17.3 M 303.8,80.5 c 1.8,3.7 3.3,7.5 4.3,11.4 m 106.1,-12 c 1.7,1.8 3.1,3.8 4.3,6 M 369.7,96 a 24,24 0 0 1 1.3,-7 m 63,-3.2 c 1,1.9 1.6,4 1.6,6.1 m 22.4,3.6 c 0.5,1.5 0.9,3.1 1,4.7 m 12.3,1.8 c 0.7,-2.1 1.8,-4 3,-6 m 86.2,-35 c 3.5,-0.1 7,0.4 10.4,1.5 m 42.8,-12.8 a 10.5,10.5 0 0 1 7.8,-3.7 m 5.5,7.9 a 14,14 0 0 1 5.6,-11.4 m 60,8.7 a 17,17 0 0 1 5.5,12.5 m 20.5,7.8 c 0.1,-7.7 3,-15.1 8.2,-20.8 m 53,20.8 a 31,31 0 0 1 -2.5,12 m 7.9,5.2 c 0,1.8 -0.3,3.5 -1.1,5"
       stroke="#3c4043"
       stroke-miterlimit="10"
       id="path40" />
    <path
       d="m 240.8,97.8 72,19.7 7.7,-7.8 -3.3,-11.9 28.3,12.5 -57,19.9 48.8,32.5 H 362 l -3.1,-12.4 -12.6,-6.4 -5.3,-8 40.2,17.2 -2,-7.9 -4.8,-1 -6.3,-8 37.3,20.3 24.3,6.2 -104,31.6 -12.5,-32.5 -55.7,-14.5 -13.3,3.5 23.3,-36.8 -8.5,4.4 -4.3,-10.4 h -5.1 L 240.9,97.8 Z M 647.5,47.2 736.4,81 874,116 l -12.6,21.8 -54,-17 -82.9,-10 6.6,-24 -59.4,-9.3 4.7,-13.7 -17,-1.4 z"
       fill="#80868b"
       id="path42" />
    <path
       d="m 185.8,127.2 55,-29.4 8.7,10.2 h 5 l 4.4,10.4 8.5,-4.4 -23.3,36.8 13.3,-3.5 55.7,14.5 12.6,32.5 -81.8,19.4 -58,-86.5 z m 131.4,-29.4 -24.2,14.3 19.7,5.4 7.8,-7.8 z m -28.7,32.4 57,-19.9 64,-22.1 34.4,25.1 -14.3,3.7 74.9,21.7 -106.7,13.8 -29.8,-16.5 6.3,8 4.8,1.1 2,8 -40.1,-17.1 5.3,7.9 12.6,6.4 3.1,12.3 h -24.6 l -48.8,-32.4 z"
       fill="#5f6368"
       id="path44" />
    <path
       d="m 409.5,88.2 34.4,25.1 -14.3,3.7 85,25.8 -43.4,-22 L 485,115 431.7,96.5 Z"
       fill="#80868b"
       id="path46" />
    <path
       d="m 471.2,120.8 176.3,-73.6 12,15.2 16.9,1.4 -4.7,13.7 59.3,9.5 -6.6,23.9 82.9,10 54,17 -7.3,29.6 -103.5,-13.7 H 553.3 l 73.6,-31.6 -112.3,20.7 -43.4,-22 z"
       fill="#5f6368"
       id="path48" />
    <path
       d="M 979.3,0.3 964,60.8 949,32.4 928.4,107.3 907.8,71.5 895.2,100.1 881,7.6 l -17.1,121 -21.7,-71.1 -18.2,75 -19.5,-32.3 -17,49.4 c -17,-3 -34,1.2 -54.3,1.2 -20.6,0 -41.6,-7 -54,-5.9 -12.6,1 -29.8,7 -57.9,4.1 -28,-2.8 -64,1.8 -64,1.8 l 67,-27.5 c -51,6.7 -100.3,9.2 -100.3,9.2 -25,0 -53.6,9.2 -53.6,9.2 -53.5,2.8 -72.7,10.8 -72.7,10.8 l 7.5,4 10.5,2.7 -23.6,6 -23.9,3 c -10,1.7 -26.3,9.4 -37.2,15.1 -1.2,-2.3 -2.4,-2.6 -2.4,-2.6 -0.7,0.9 -1.2,1.9 -1.4,3 -0.5,-2 -1.4,-4 -2.6,-5.7 -1.8,1.6 -3,3.8 -3.6,6.2 a 8.7,8.7 0 0 0 -1.4,-4.1 14,14 0 0 0 -4.3,4.6 c -0.2,-2.4 -1.2,-4.6 -2.9,-6.4 -2.8,2 -2.8,4.3 -2.8,4.8 a 9,9 0 0 0 -1.8,-5.5 c -4,2.6 -5.6,10.1 -5.6,10.1 0,-1.7 -0.3,-3.4 -1.2,-4.8 -4,0.9 -5.1,3.2 -5.1,3.2 -2.1,-7.3 -6.6,-9.2 -6.6,-9.2 -2,6.8 0.5,11.3 0.5,11.3 -2.3,-0.1 -4.7,0.4 -6.8,1.5 a 9,9 0 0 0 1.4,-6 6.8,6.8 0 0 0 -4.1,2.8 c 0.6,-2 0.5,-4.3 -0.4,-6.4 -1.7,0.7 -3.2,2 -4.3,3.5 1,-4.2 -0.6,-9.6 -0.6,-9.6 -3.4,2.3 -4.5,7.8 -4.5,7.8 a 3,3 0 0 0 -1.2,-1.7 4.6,4.6 0 0 0 -1.4,3.9 59.8,59.8 0 0 0 -21.7,-13.2 13,13 0 0 0 2.3,-5.9 8,8 0 0 0 -5.4,1.8 c 1.1,-3 1.1,-6.1 0,-9 -2.7,0.5 -5.4,5.4 -5.4,5.4 0.3,-3.7 -0.8,-7.3 -3,-10.2 -7,5 -10,10.8 -11,14.2 L 165.3,60.8 138,113.8 122.6,39.7 112.9,106.4 79.6,0 H 74.3 L 65.7,27.7 55.3,0.3 H 0 V 245 H 1024 V 0.2 H 979.3 Z M 776,182.9 c -25.2,-6.2 -70.9,2 -70.9,2 -27.8,-2.5 -49,4.5 -49,4.5 a 47.2,47.2 0 0 0 -25,-9.5 c 60.4,-23 130.3,-20.7 152.5,-19.2 z"
       fill="#202124"
       id="path50" />
    <path
       d="m 340.9,136 -15.2,14.2 16.8,-11.8 z m 27.1,0.1 -8,8 1.6,0.7 8.7,-5.8 z m 61.6,-19.1 -20,19.1 20,-10 -1.8,-5.3 5,-2.8 z"
       fill="#3c4043"
       id="path52" />
    <path
       d="m 333.2,184 1.7,-9.6 2,9.6 1.9,-15.5 2.5,12 2.2,-12.3 2.7,10.6 m 7.8,-5 0.8,-5.1 1.1,5.1 z m 7.3,-3.2 1,-5.5 2.4,6.2 1.2,-5.8 2.3,5.1 m 16.1,-4.1 0.3,-2.7 a 0.4,0.4 0 0 1 0.4,-0.3 0.4,0.4 0 0 1 0.4,0.3 l 0.5,2.7 3.1,-0.5 0.5,-3.7 0.9,4.2 4,-1 0.7,-6 0.6,5.6 0.8,-0.4 0.2,-2.8 a 0.2,0.2 0 0 1 0.2,-0.1 h 0.1 v 0.1 l 0.6,3 1.5,-0.7 0.2,-2.6 0.8,2.6 M 776.8,184 c 0,0 -0.2,-5.5 -5,-12.7 0,0 -2,2.9 -2,8.5 -1.5,-2 -3.3,-3.5 -5.5,-4.6 0,0 -1.6,1.9 1.6,9.7 l 10.9,-0.8 z m -21.6,0.5 a 27,27 0 0 0 -0.5,-6.4 7,7 0 0 0 -4.3,3.8 12,12 0 0 0 0,-7.6 c 0,0 -5,3.4 -6,8.5 -0.7,-1.8 -1.7,-3.4 -3,-4.7 a 14,14 0 0 0 -1.9,9.7 c 1,5.4 15.7,-3.3 15.7,-3.3 z m -30,5.1 c 0.4,-2 0.5,-4.2 0.3,-6.3 -1.1,0.4 -2.1,1 -3,1.8 0.2,-2.3 -0.1,-4.6 -0.8,-6.8 a 8,8 0 0 0 -5.2,3.6 c 0,0 0.5,-1 -1.1,-4.6 a 9,9 0 0 0 -3.4,7.6 z m -17.9,-4.5 c 0,0 0.9,-4.7 -1.2,-8.4 -1.3,0.8 -2.3,2 -2.8,3.4 0,0 0.2,-1.4 -1.2,-4.3 a 9.6,9.6 0 0 0 -2.8,6.1 c 0,0 0.2,-1.2 -3.3,-3.3 a 6,6 0 0 0 -0.2,3.5 5,5 0 0 0 -3.5,-1.1 c 0,2 0.6,4.2 1.6,6 z"
       fill="#202124"
       id="path54" />
    <path
       d="m 722.7,192.4 c 0,0 6.8,-6.1 10.6,-18.1"
       stroke="#202124"
       stroke-miterlimit="10"
       id="path56" />
    <path
       d="m 733.3,175.5 a 1.3,1.3 0 1 0 0,-2.5 1.3,1.3 0 0 0 0,2.5 z m -50,-1.5 a 1.3,1.3 0 1 0 0,-2.5 1.3,1.3 0 0 0 0,2.6 z"
       fill="#202124"
       id="path58" />
    <path
       d="m 731.4,179.4 4.1,-1.3 m -6.7,6.2 -1.9,-3.9 m -41.5,5.1 c -0.1,-4.3 -0.8,-8.6 -2.1,-12.7 m 1.5,4.6 2.3,-2.7 m -2.1,6 -3.4,-2.5"
       stroke="#202124"
       stroke-miterlimit="10"
       id="path60" />
    <path
       d="m 788.3,149.7 -2.6,-8.3 -2.5,10.5 -2.5,-8.5 -2,8.8 -8,0.4 -3.7,-14.8 -2.8,15.2 -2,-10 -1.6,10 -5.3,-1 -2.5,-11.7 -1.6,6.7 -1,-8.9 v -0.2 a 0.4,0.4 0 0 0 -0.7,0.2 l -2.2,9.7 -1,-8.3 -3.3,12.5 -6.4,-1.9 -1.9,-16 -2.2,16 v 8 l 49.3,-1.5 7.4,-3.7 -0.9,-3.3 z m -92.6,-2.8 -1.6,-10.6 -2.6,11.3 -8.4,-1.2 -2.2,-9.6 -0.1,-0.2 a 0.4,0.4 0 0 0 -0.5,0 l -0.1,0.2 -2.2,10.3 -5.6,-1.1 -0.8,-15.5 -2,17.1 -1,-10.8 a 0.3,0.3 0 0 0 -0.6,0 l -1.3,11.7 -5,-0.6 -2,-10 -0.9,11.5 h -7.3 l -1.2,-8.8 -1.5,9.7 -1.5,-5.6 a 0.5,0.5 0 0 0 -1,0 l -1.3,5.8 -3.3,-13 -2.2,13 h -5.8 l -0.8,-11 -1.2,11.5 -2,-1.2 -0.4,-7.1 a 0.3,0.3 0 0 0 -0.2,-0.2 0.3,0.3 0 0 0 -0.3,0.2 l -1.7,8.3 -1.6,-14.2 -3,13.3 -4.5,-1.3 -1,-10.1 -2,7.3 -1.6,-10.3 -1.7,9.6 -1.6,-6.9 -2.9,11 -4.3,-0.4 -1.2,-6.4 a 0.6,0.6 0 0 0 -0.6,-0.5 0.6,0.6 0 0 0 -0.6,0.4 l -2,6.8 -13,-0.4 -1.3,-6.7 -2.2,7.1 -1,-5.5 -1.4,5.2 h -4 l -1,-4.6 -0.7,5.2 h -2.7 l -0.9,-4.4 -1.1,5 82.3,6.2 45.5,-1.4 -1.2,-8.1 z"
       fill="#202124"
       id="path62" />
    <path
       d="m 593.4,142 v 8 m 2.1,-25.5 v 8 m -2.6,-6.5 v 8 m 5.1,-9.5 v 8 m 5.4,-7.5 v 3.7 m 2.2,-5.1 v 3.7 m 2.9,-3.1 v 3.7 m -23.3,-1.5 v 7.9 m -2.2,-6.8 v 7.9 m -7.6,-9.8 v 8 m -2.1,-6.1 v 7.9 m -2.7,-8.4 v 8 m -9.4,-8.2 v 8 m -3.2,-6.3 v 7.9 m -3,-7.1 v 8 m -3.2,-8 v 8 m -3.2,-9.8 v 7.9 m -2.1,-6.1 v 8 m -2.5,-8.8 v 7.9 M 534,129 v 8 m -1.7,-6.2 v 8 m -2,-9.2 v 8 m -2.5,-6.6 v 8 m -2.5,-7 v 8 m -3.3,-9.4 v 8 m -2.7,-9 v 8 m -4.8,-6.2 v 8 m -2.1,-8.6 v 8 m -2.6,-6.4 v 8 m -2.9,-9 v 8 m -4.9,-6.1 v 8 m -3,-7.5 v 7.9 m -2,-8.7 v 8 m -2.3,-6.4 v 7.9 m -4.3,-8.5 v 8 m -63.8,1.2 v 8 m -2.5,-6.4 v 7.9 m -5.3,-7 v 8 m -3.1,-8.4 v 8 m -2.3,-6.1 v 8 m -2.9,-8.4 v 8 m -2.4,-6.7 v 8"
       stroke="#202124"
       stroke-miterlimit="10"
       id="path64" />
    <path
       d="m 538.5,127.9 -1.5,6.4 3.3,0.3 z m 26,-1.9 -1.5,6 h 3.4 z m 24.1,-3.2 -1.3,6.8 3.2,-0.3 z m -104.8,16.2 -0.7,-4.7 -0.7,6 z m -5.4,1 -1.7,-5 -1.3,6.7 -2,0.2 -1,-4.4 -1.1,5.3 h -2.4 l -0.8,-6.8 -0.7,7.3 h -2 l -1.5,-4 -0.6,4 -3,0.4 -1.2,-3.7 -0.5,4 -10.7,1 -1,-4.6 -1,5 h -3 l -1.1,-5 -1.2,5.7 -2.3,-0.6 -1,-4.3 -0.8,4.9 h -3.8 l -1.4,-4.2 -1.3,4.8 -1.6,-3.2 -0.5,3.2 0.7,2 H 459 l 20.7,-4 -1.4,-4.7 z"
       fill="#202124"
       id="path66" />
    <path
       d="M 76.3,167.4 V 25.8 m 0,45.7 L 62.8,58 M 76.3,101.2 96,81.5 M 76.3,136 53.6,113.2 m 69.5,-41.7 v 82.8 m 0,-45.6 8.8,-8.8 m -8.8,36.1 -8.8,-8.8 m 51,-54.8 v 93.2 m 9.9,-74.4 -10,10 m 0.1,41.6 -20.7,-20.8 m 660.9,-2.5 V 182 m 9.4,-47.2 -8.7,8.6 m -13.8,13.3 13.1,13.1 m 37,-86.2 v 79.7 m 8.3,-60.7 -7.8,7.8 m -11.8,24.4 11.3,11.2 m 39,-105.5 V 146 m 5.9,-70.4 -5.9,5.9 m -10.4,34.3 10.4,10.4 M 908.2,89 v 64.9 m 10.2,-49.8 -10.2,10.2 m -10.2,14.8 10.2,10.2 m 42.3,-85.4 v 82.2 m 10,-56.8 -9.8,9.8 m -11.8,9.5 11.6,11.6"
       stroke="#5f6368"
       stroke-linecap="round"
       stroke-linejoin="round"
       id="path68" />
    <path
       d="m 268.3,156.8 a 1.6,1.6 0 1 0 0,-3.1 1.6,1.6 0 0 0 0,3 z"
       fill="#202124"
       id="path70" />
    <path
       d="m 254.1,174.1 c 0,0 4.4,-12.8 14.2,-18.9 m -6.7,5.8 -1,-4.6 m -2.6,9.8 h 4.4 m 33.1,21.1 c 0,0 0.8,-10.7 6,-16.9"
       stroke="#202124"
       stroke-miterlimit="10"
       id="path72" />
    <path
       d="m 269.2,171.3 a 1.6,1.6 0 1 0 0,-3.1 1.6,1.6 0 0 0 0,3 z m 32.3,0.8 a 1.6,1.6 0 1 0 0,-3.1 1.6,1.6 0 0 0 0,3.1 z"
       fill="#202124"
       id="path74" />
    <path
       d="m 269.5,171 c 0,0 2.7,8.6 1.9,13.7 m 26.9,-8.9 -2.3,-4.9 m 0.8,9.5 3.8,-1 m -33,-4 3.2,0.7 m -0.3,-2.5 2,-2"
       stroke="#202124"
       stroke-miterlimit="10"
       id="path76" />
    <path
       d="m 497.6606,39.1 -1.4,0.3 a 1,1 0 0 0 -0.6,1.3 l 4.3,8.5 8,-2 -9,-7.8 a 1.4,1.4 0 0 0 -1.3,-0.3 z"
       fill="#80868b"
       id="path78" />
    <path
       d="m 499.9606,49.2 -4.3,-8.5 a 1,1 0 0 1 0,-0.8 1,1 0 0 1 0.6,-0.5 h 0.3 l 4.7,9.5 z"
       fill="#5f6368"
       id="path80" />
    <path
       d="m 487.6606,51.8 28.5,-7 a 2.316247,2.316247 0 1 1 1.1,4.5 l -28.4,7 z"
       fill="#5f6368"
       id="path82" />
    <path
       d="m 488.1606,48 a 1.4,1.4 0 0 0 -1,1.7 l 1,4.4 4.9,-1.2 -3.5,-4.4 a 1.3,1.3 0 0 0 -1.4,-0.5 z"
       fill="#5f6368"
       id="path84" />
    <path
       d="m 488.8606,56.5 28.5,-7.1 a 2.3,2.3 0 0 0 1.8,-2.3 l -30.8,7.6 0.4,1.8 z"
       fill="#80868b"
       id="path86" />
    <path
       d="m 503.1606,63.6 -1.4,0.3 a 1,1 0 0 1 -1.1,-0.8 l -0.3,-9.5 8.1,-2 -4.4,11.2 a 1.4,1.4 0 0 1 -0.9,0.8 z"
       fill="#80868b"
       id="path88" />
    <path
       d="m 500.3606,53.6 0.3,9.5 a 1,1 0 0 0 0.3,0.7 1,1 0 0 0 0.8,0.1 h 0.3 l -0.3,-10.6 z"
       fill="#5f6368"
       id="path90" />
    <path
       d="m 706.8,169.5 h 48.4"
       stroke="#202124"
       stroke-linecap="round"
       stroke-linejoin="round"
       id="path92" />
    <path
       d="m 763.8,169.3 a 1.3,1.3 0 1 0 0,-2.6 1.3,1.3 0 0 0 0,2.6 z"
       fill="#202124"
       id="path142" />
    <path
       d="m 755.2,184 c 0,0 0,-8.5 8.6,-16 m -5.5,6.3 3.9,-1.2 m -5.2,3.8 -1.9,-3"
       stroke="#202124"
       stroke-miterlimit="10"
       id="path144" />
  </g>
</svg>
